<?xml version="1.0" encoding="utf-8"?>
<!-- Generator: Adobe Illustrator 26.2.0, SVG Export Plug-In . SVG Version: 6.00 Build 0)  -->
<svg version="1.1" id="Outline" xmlns="http://www.w3.org/2000/svg" xmlns:xlink="http://www.w3.org/1999/xlink" x="0px" y="0px"
	 viewBox="0 0 512 512" style="enable-background:new 0 0 512 512;" xml:space="preserve">
<style type="text/css">
	.st0{fill:#4B4DB2;}
</style>
<path class="st0" d="M505.8,347.5L331.5,173.2c-41.6-41.7-109.1-41.8-150.8-0.2c-0.1,0.1-0.1,0.1-0.2,0.2L6.2,347.5
	c-8.4,8.4-8.4,21.9,0,30.3c8.4,8.4,21.9,8.4,30.3,0l174.3-174.3c25-25,65.5-25,90.5,0l174.3,174.3c8.3,8.4,21.8,8.4,30.2,0.1
	c0,0,0.1-0.1,0.1-0.1c8.5-8.2,9-21.4,0.8-29.9C506.5,347.7,506.3,347.5,505.8,347.5z"/>
</svg>
