<?xml version="1.0" encoding="utf-8"?>
<!-- Generator: Adobe Illustrator 26.2.0, SVG Export Plug-In . SVG Version: 6.00 Build 0)  -->
<svg version="1.1" id="레이어_1" xmlns="http://www.w3.org/2000/svg" xmlns:xlink="http://www.w3.org/1999/xlink" x="0px"
	 y="0px" viewBox="0 0 24 24" style="enable-background:new 0 0 24 24;" xml:space="preserve">
<style type="text/css">
	.st0{fill:#4B4DB2;}
</style>
<path class="st0" d="M12.31,12c3.31,0,6-2.69,6-6s-2.69-6-6-6s-6,2.69-6,6C6.31,9.31,9,12,12.31,12z M12.31,2c2.21,0,4,1.79,4,4
	s-1.79,4-4,4s-4-1.79-4-4S10.1,2,12.31,2z"/>
<path class="st0" d="M12.31,14c-4.97,0.01-8.99,4.03-9,9c0,0.55,0.45,1,1,1s1-0.45,1-1c0-3.87,3.13-7,7-7s7,3.13,7,7
	c0,0.55,0.45,1,1,1s1-0.45,1-1C21.3,18.03,17.28,14.01,12.31,14z"/>
</svg>
