<?xml version="1.0" encoding="utf-8"?>
<!-- Generator: Adobe Illustrator 26.2.0, SVG Export Plug-In . SVG Version: 6.00 Build 0)  -->
<svg version="1.1" id="레이어_1" xmlns="http://www.w3.org/2000/svg" xmlns:xlink="http://www.w3.org/1999/xlink" x="0px"
	 y="0px" viewBox="0 0 24 24" style="enable-background:new 0 0 24 24;" xml:space="preserve">
<style type="text/css">
	.st0{fill:#4B4DB2;}
</style>
<g id="_01_align_center">
	<path class="st0" d="M13.34,0.52c-0.76-0.69-1.92-0.69-2.68,0L0,10.23v10.53C0,22.55,1.43,24,3.2,24c0,0,0,0,0,0h17.6
		c1.77,0,3.2-1.45,3.2-3.24c0,0,0,0,0,0V10.23L13.34,0.52z M15,21.97H9v-5.09c0-1.68,1.34-3.04,3-3.04s3,1.36,3,3.04V21.97z
		 M22,20.76c0,0.67-0.54,1.21-1.2,1.21h0H17v-5.09c0-2.8-2.24-5.06-5-5.06s-5,2.27-5,5.06v5.09H3.2c-0.66,0-1.2-0.54-1.2-1.21l0,0
		v-9.62l10-9.11l10,9.11V20.76z"/>
</g>
</svg>
