<?xml version="1.0" encoding="utf-8"?>
<!-- Generator: Adobe Illustrator 26.2.0, SVG Export Plug-In . SVG Version: 6.00 Build 0)  -->
<svg version="1.1" id="레이어_1" xmlns="http://www.w3.org/2000/svg" xmlns:xlink="http://www.w3.org/1999/xlink" x="0px"
	 y="0px" viewBox="0 0 24 24" style="enable-background:new 0 0 24 24;" xml:space="preserve">
<style type="text/css">
	.st0{fill:#4B4DB2;}
</style>
<g id="_01_align_center">
	<path class="st0" d="M23.88,16.2l-2.73-9.37c-1.44-4.96-6.83-7.86-12.03-6.49C5.64,1.26,2.97,3.94,2.19,7.3l-2.11,9.05
		c-0.38,1.62,0.69,3.22,2.39,3.58C2.69,19.97,2.92,20,3.15,20h3.78c0.58,2.7,3.35,4.45,6.18,3.9c2.06-0.4,3.68-1.94,4.1-3.9h3.64
		c1.74,0,3.15-1.34,3.15-3C24,16.73,23.96,16.46,23.88,16.2L23.88,16.2z M12.07,22c-1.33-0.01-2.51-0.81-2.95-2h5.91
		C14.58,21.19,13.4,21.99,12.07,22z M21.69,17.6c-0.2,0.25-0.51,0.4-0.84,0.39H3.15c-0.58,0-1.05-0.45-1.05-1
		c0-0.07,0.01-0.15,0.02-0.22l2.11-9.05C5.15,3.79,9.26,1.3,13.4,2.18c2.77,0.59,4.97,2.58,5.73,5.18l2.73,9.37
		C21.95,17.03,21.89,17.35,21.69,17.6z"/>
</g>
</svg>
